#!OML:ASF F:\VICON\USERDATA\INSTALL\rory3\rory3.ASF
:FULLY-SPECIFIED
:DEGREES
2631
root 0.10735 16.1146 -0.0596615 -0.725937 0.465257 -1.21014
lowerback 9.99383 0.216194 0.011429
upperback -1.43466 0.291905 0.0290046
thorax -7.12822 0.142887 -0.0225675
lowerneck -17.3558 -8.12191 -11.2268
upperneck 37.8921 -10.1321 4.03916
head 17.8229 -5.21573 1.71448
rclavicle -8.79001e-016 2.18663e-015
rhumerus 34.7054 13.6586 -69.4865
rradius 42.3571
rwrist 45.5318
rhand -44.8952 38.7364
rfingers 7.12502
rthumb -17.6828 9.52042
lclavicle -8.79001e-016 2.18663e-015
lhumerus 33.0742 -13.7776 70.53
lradius 40.9212
lwrist -26.2686
lhand -41.3341 -4.27367
lfingers 7.12502
lthumb -14.2535 25.2172
rfemur -1.06452 11.1177 19.0414
rtibia 16.7077
rfoot -11.3951 -11.938
rtoes -5.86692
lfemur 0.145508 -11.6904 -15.8891
ltibia 12.7442
lfoot -8.37873 10.1115
ltoes -13.3853
2632
root 0.108685 16.1153 -0.0681258 -0.710532 0.455638 -1.20933
lowerback 10.0012 0.217372 0.0175787
upperback -1.43445 0.295362 0.0448619
thorax -7.13227 0.144673 -0.00992843
lowerneck -17.3201 -8.11362 -11.2616
upperneck 37.9284 -10.1156 4.0451
head 17.8361 -5.21426 1.72811
rclavicle 9.22796e-015 3.77691e-015
rhumerus 34.7361 13.6566 -69.465
rradius 42.349
rwrist 45.5338
rhand -45.1579 38.728
rfingers 7.12502
rthumb -17.9355 9.53502
lclavicle 9.22796e-015 3.77691e-015
lhumerus 33.2388 -13.4406 70.9301
lradius 40.4355
lwrist -26.6956
lhand -41.4465 -4.82126
lfingers 7.12502
lthumb -14.3619 24.6619
rfemur -1.10132 11.1034 19.0201
rtibia 16.66
rfoot -11.3025 -11.9081
rtoes -6.13738
lfemur 0.0779526 -11.6971 -15.8806
ltibia 12.7825
lfoot -8.40177 10.0976
ltoes -13.2061
2633
root 0.109604 16.1146 -0.0797452 -0.734911 0.446349 -1.21162
lowerback 10.0486 0.235017 0.0256813
upperback -1.4007 0.319961 0.0457256
thorax -7.12337 0.156386 -0.017641
lowerneck -17.2437 -8.12846 -11.2794
upperneck 37.8828 -10.1464 4.06601
head 17.7977 -5.22756 1.73669
rclavicle 2.98798e-015 -1.98785e-016
rhumerus 34.8072 13.6004 -69.4257
rradius 42.4016
rwrist 45.3319
rhand -45.0895 38.202
rfingers 7.12502
rthumb -17.8697 9.00302
lclavicle 2.98798e-015 -1.98785e-016
lhumerus 33.4432 -13.0417 71.4603
lradius 39.9226
lwrist -27.3805
lhand -41.6388 -5.10724
lfingers 7.12502
lthumb -14.5472 24.3627
rfemur -1.12121 11.107 19.0127
rtibia 16.6317
rfoot -11.2234 -11.9079
rtoes -6.27336
lfemur 0.017558 -11.6649 -15.8752
ltibia 12.8342
lfoot -8.35057 10.1076
ltoes -13.3828
2634
root 0.109354 16.1137 -0.0911005 -0.786851 0.459181 -1.25117
lowerback 10.1142 0.24086 0.0570834
upperback -1.3596 0.332434 0.0562401
thorax -7.11697 0.161444 -0.0264625
lowerneck -17.1686 -8.14993 -11.3176
upperneck 37.8508 -10.1921 4.11245
head 17.773 -5.24635 1.75702
rclavicle -3.9291e-015 0
rhumerus 34.8661 13.4967 -69.4643
rradius 42.3558
rwrist 45.418
rhand -45.1384 37.9651
rfingers 7.12502
rthumb -17.9168 8.77038
lclavicle -3.9291e-015 0
lhumerus 33.5148 -13.0296 71.4703
lradius 39.9267
lwrist -27.4415
lhand -41.679 -5.05451
lfingers 7.12502
lthumb -14.5859 24.4126
rfemur -1.10501 11.1583 19.07
rtibia 16.6259
rfoot -11.1989 -11.9712
rtoes -6.31646
lfemur -0.00789308 -11.6464 -15.8266
ltibia 12.869
lfoot -8.27307 10.0908
ltoes -13.5282
2635
root 0.110375 16.114 -0.0996888 -0.83886 0.455112 -1.28961
lowerback 10.1814 0.235147 0.108235
upperback -1.3301 0.33128 0.0558849
thorax -7.12366 0.158806 -0.0557087
lowerneck -17.1283 -8.14678 -11.2794
upperneck 37.8577 -10.1976 4.09078
head 17.7619 -5.24717 1.74116
rclavicle 1.36664e-016 1.98785e-016
rhumerus 34.9182 13.4706 -69.4722
rradius 42.257
rwrist 45.6204
rhand -45.5039 38.0696
rfingers 7.12502
rthumb -18.2685 8.90749
lclavicle 1.36664e-016 1.98785e-016
lhumerus 33.5753 -13.0393 71.371
lradius 39.9299
lwrist -27.4343
lhand -41.5771 -5.12097
lfingers 7.12502
lthumb -14.4877 24.3532
rfemur -1.08881 11.1547 19.113
rtibia 16.6371
rfoot -11.1404 -11.9661
rtoes -6.64526
lfemur 0.00736084 -11.6853 -15.7963
ltibia 12.8909
lfoot -8.24838 10.1093
ltoes -13.4356
2636
root 0.110851 16.1142 -0.107151 -0.867723 0.395713 -1.25567
lowerback 10.2303 0.253938 0.0810388
upperback -1.31752 0.352376 0.0479261
thorax -7.1383 0.17001 -0.0523748
lowerneck -17.0924 -8.14079 -11.2806
upperneck 37.8759 -10.1846 4.06988
head 17.7598 -5.24596 1.73609
rclavicle 5.72748e-015 5.96354e-016
rhumerus 34.9422 13.4959 -69.4265
rradius 42.216
rwrist 45.6708
rhand -45.4044 38.0578
rfingers 7.12502
rthumb -18.1727 8.88677
lclavicle 5.72748e-015 5.96354e-016
lhumerus 33.4877 -13.3316 70.9571
lradius 40.3672
lwrist -27.0485
lhand -41.2519 -4.52376
lfingers 7.12502
lthumb -14.1744 24.9727
rfemur -1.08871 11.2268 19.0722
rtibia 16.62
rfoot -11.1155 -11.957
rtoes -6.49613
lfemur 0.0143688 -11.6778 -15.8404
ltibia 12.9276
lfoot -8.25909 10.1217
ltoes -13.0729
